<svg width="26" height="23" viewBox="0 0 26 23" fill="none" xmlns="http://www.w3.org/2000/svg">
<path d="M25.2378 3.71655H4.90259C4.66886 3.71655 4.51303 3.91133 4.51303 4.10612V18.1304C4.51303 18.3252 4.66886 18.52 4.90259 18.52H20.602L24.9262 22.8831C25.0041 22.961 25.1209 22.9999 25.2378 22.9999C25.3936 22.9999 25.5495 22.922 25.5884 22.7662C25.6274 22.7273 25.6274 22.6493 25.6274 22.5714V18.1694C25.6274 18.1694 25.6274 18.1694 25.6274 18.1304V4.10612C25.6274 3.91133 25.4326 3.71655 25.2378 3.71655ZM24.8482 17.4681C24.8093 17.4681 24.8093 17.5071 24.8482 17.4681V21.6754L21.0305 17.8577C20.9526 17.7798 20.8747 17.7408 20.7578 17.7408H5.29216V4.49568H24.8482V17.4681Z" fill="#002852"/>
<path d="M0.773328 16.4553C0.734372 16.4553 0.734367 16.4553 0.695411 16.4553C0.461673 16.4553 0.305847 16.2605 0.305847 16.0657C0.305847 16.0267 0.305847 16.0267 0.305847 15.9878V16.0657C0.305847 16.2605 0.461673 16.4553 0.695411 16.4553C0.734367 16.4553 0.734372 16.4553 0.773328 16.4553Z" fill="#002852"/>
<path d="M19.3555 0.989661V2.43105C19.3555 2.62583 19.1607 2.82061 18.9659 2.82061C18.7711 2.82061 18.5763 2.62583 18.5763 2.43105V1.37922H1.04597V11.43V11.4689V15.1308L3.14961 13.0272C3.30544 12.8713 3.53917 12.8713 3.695 13.0272C3.85083 13.183 3.85083 13.4167 3.695 13.5726L0.929097 16.3385C0.929097 16.3774 0.890138 16.3774 0.890138 16.3774C0.851181 16.4164 0.773271 16.4553 0.734315 16.4553C0.695358 16.4553 0.695366 16.4553 0.656409 16.4553C0.422671 16.4553 0.266846 16.2606 0.266846 16.0658V12.0922V12.0533V0.989661C0.266846 0.755923 0.422671 0.600098 0.656409 0.600098H18.9659C19.1996 0.600098 19.3555 0.755923 19.3555 0.989661Z" fill="#002852"/>
<path d="M18.4984 9.48215C18.4984 10.9235 17.3297 12.0922 15.8883 12.0922H15.4598C15.226 12.0922 15.0313 12.1701 14.8754 12.326C14.7196 12.4818 14.6417 12.6766 14.6417 12.9103V13.8063C14.6417 14.04 14.4859 14.1959 14.2521 14.1959C14.0184 14.1959 13.8626 14.04 13.8626 13.8063V12.9103C13.8626 12.4818 14.0184 12.0922 14.33 11.7806C14.6417 11.4689 15.0313 11.3131 15.4598 11.3131H15.8883C16.9012 11.3131 17.7192 10.495 17.7192 9.48215C17.7192 8.46928 16.9012 7.6512 15.8883 7.6512H15.1092C14.6027 7.6512 14.1742 7.84598 13.8236 8.19659C13.473 8.54719 13.2782 9.01467 13.2782 9.48215C13.2782 9.71588 13.0834 9.87171 12.8887 9.87171C12.6549 9.87171 12.4991 9.71588 12.4991 9.48215C12.4991 8.78093 12.7718 8.11867 13.2782 7.6512C13.7457 7.14477 14.408 6.87207 15.1092 6.87207H15.8883C17.3297 6.91103 18.4984 8.07972 18.4984 9.48215Z" fill="#002852"/>
<path d="M14.2911 15.6762C14.0574 15.6762 13.9016 15.5203 13.9016 15.2866V15.1308C13.9016 14.897 14.0574 14.7412 14.2911 14.7412C14.5249 14.7412 14.6807 14.897 14.6807 15.1308V15.2866C14.6807 15.5203 14.4859 15.6762 14.2911 15.6762Z" fill="#002852"/>
</svg>
