<svg width="22" height="22" viewBox="0 0 22 22" fill="none" xmlns="http://www.w3.org/2000/svg">
<path d="M15.3647 21.5H6.63465C5.6474 21.5366 4.68555 21.1822 3.95811 20.5138C3.23066 19.8453 2.79639 18.9168 2.74965 17.93V13.25C2.74965 13.051 2.82867 12.8603 2.96932 12.7196C3.10997 12.579 3.30074 12.5 3.49965 12.5C3.69856 12.5 3.88933 12.579 4.02998 12.7196C4.17063 12.8603 4.24965 13.051 4.24965 13.25V17.93C4.29575 18.519 4.57173 19.0664 5.01798 19.4537C5.46423 19.841 6.04493 20.0372 6.63465 20H15.3647C15.9544 20.0372 16.5351 19.841 16.9813 19.4537C17.4276 19.0664 17.7036 18.519 17.7497 17.93V13.25C17.7497 13.051 17.8287 12.8603 17.9693 12.7196C18.11 12.579 18.3007 12.5 18.4997 12.5C18.6986 12.5 18.8893 12.579 19.03 12.7196C19.1706 12.8603 19.2497 13.051 19.2497 13.25V17.93C19.2029 18.9168 18.7686 19.8453 18.0412 20.5138C17.3137 21.1822 16.3519 21.5366 15.3647 21.5ZM21.2822 11.5325C21.3524 11.4627 21.4082 11.3798 21.4463 11.2884C21.4844 11.197 21.504 11.099 21.504 11C21.504 10.9009 21.4844 10.8029 21.4463 10.7115C21.4082 10.6201 21.3524 10.5372 21.2822 10.4675L11.5322 0.717454C11.4624 0.647158 11.3795 0.591362 11.2881 0.553286C11.1967 0.515209 11.0987 0.495605 10.9997 0.495605C10.9006 0.495605 10.8026 0.515209 10.7112 0.553286C10.6198 0.591362 10.5369 0.647158 10.4672 0.717454L0.717151 10.4675C0.575923 10.6087 0.496582 10.8002 0.496582 11C0.496582 11.1997 0.575923 11.3912 0.717151 11.5325C0.858378 11.6737 1.04992 11.753 1.24965 11.753C1.44938 11.753 1.64092 11.6737 1.78215 11.5325L10.9997 2.30745L20.2172 11.5325C20.2869 11.6028 20.3698 11.6585 20.4612 11.6966C20.5526 11.7347 20.6506 11.7543 20.7497 11.7543C20.8487 11.7543 20.9467 11.7347 21.0381 11.6966C21.1295 11.6585 21.2124 11.6028 21.2822 11.5325Z" fill="#002852"/>
</svg>
