<svg width="24" height="24" viewBox="0 0 24 24" fill="none" xmlns="http://www.w3.org/2000/svg">
<path fill-rule="evenodd" clip-rule="evenodd" d="M18.588 6.3559H9.17627V5.40845H18.588V6.3559Z" fill="#002852"/>
<path fill-rule="evenodd" clip-rule="evenodd" d="M9.17627 8.23193H18.588V9.17938H9.17627V8.23193Z" fill="#002852"/>
<path fill-rule="evenodd" clip-rule="evenodd" d="M18.588 12.0029H9.17627V11.0554H18.588V12.0029Z" fill="#002852"/>
<path fill-rule="evenodd" clip-rule="evenodd" d="M13.8822 14.8264H9.17627V13.8789H13.8822V14.8264Z" fill="#002852"/>
<path fill-rule="evenodd" clip-rule="evenodd" d="M6.34967 2.58496H21.4148V19.0587C21.4148 20.3615 20.3615 21.4148 19.0587 21.4148H4.94104C3.63823 21.4148 2.58496 20.3615 2.58496 19.0587V5.40849H6.34967V2.58496ZM7.29712 3.53241V6.35594H3.53241V19.0587C3.53241 19.8382 4.16149 20.4673 4.94104 20.4673H19.0587C19.8382 20.4673 20.4673 19.8382 20.4673 19.0587V3.53241H7.29712Z" fill="#002852"/>
<path fill-rule="evenodd" clip-rule="evenodd" d="M7.29748 5.88208V19.0585C7.29748 20.3614 6.24421 21.4146 4.94141 21.4146V20.4672C5.72095 20.4672 6.35003 19.8381 6.35003 19.0585V5.88208H7.29748Z" fill="#002852"/>
</svg>
